<svg version="1.2" xmlns="http://www.w3.org/2000/svg" viewBox="0 0 512 512" width="512" height="512">
	<style>
		.s0 { fill: #000000 } 
	</style>
	<path id="Path 0" fill-rule="evenodd" class="s0" d="m255.5 0.05c106.07-0.08 116.3 0.05 119.5 1.57 1.93 0.91 5.22 3.28 7.33 5.27 2.11 1.98 4.55 4.96 5.43 6.61 0.98 1.85 1.86 7.03 2.29 13.5 0.46 7.07 1.34 11.97 2.68 15 1.1 2.48 3.75 6.25 5.88 8.39 2.14 2.13 5.91 4.81 8.39 5.96 3.91 1.8 7.14 2.15 24.5 2.64 15.61 0.45 20.77 0.94 23.5 2.23 1.93 0.91 4.44 2.47 5.59 3.47 1.16 0.99 3.25 3.39 4.66 5.31 1.41 1.92 3.28 5.97 4.16 9 1.17 4 1.61 9.67 1.59 36l-3 3c-1.65 1.65-3.68 3-4.5 3-0.82 0-2.62-0.56-4-1.25-1.37-0.69-2.94-2.26-3.5-3.5-0.55-1.24-1-9.67-1-35.25l-7-7-15.25-0.01c-8.39 0-17.95-0.45-21.25-1-3.3-0.55-8.81-2.35-12.25-3.99-3.44-1.65-8.5-5.25-11.25-8-2.75-2.75-6.35-7.81-8-11.25-1.64-3.44-3.44-8.95-3.99-12.25-0.55-3.3-1-8.36-1-11.25-0.01-4.5-0.44-5.68-6.01-11.25h-226.15l-2.93 3c-2.47 2.54-2.92 3.8-2.93 8.25 0 2.89-0.45 7.95-1 11.25-0.55 3.3-2.35 8.81-3.99 12.25-1.65 3.44-5.25 8.5-8 11.25-2.75 2.75-7.81 6.35-11.25 8-3.44 1.64-8.95 3.44-12.25 3.99-3.3 0.55-12.91 1-36.7 1.01l-6.8 7 0.32 88.75c0.28 77.66 0.53 89.97 2 98.5 0.92 5.36 2.63 14.14 3.78 19.5 1.16 5.36 3.67 14.93 5.58 21.25 1.91 6.32 5.41 16.23 7.77 22 2.36 5.77 6.38 14.66 8.92 19.75 2.55 5.09 7.45 13.86 10.91 19.5 3.45 5.64 8.77 13.63 11.82 17.75 3.05 4.13 8.94 11.55 13.1 16.5 4.16 4.95 11.78 13.06 16.93 18.03 5.15 4.97 13.65 12.45 18.87 16.62 5.23 4.17 14.9 11.18 21.5 15.57 6.6 4.39 22.35 14.66 35 22.83 12.65 8.16 25.25 15.74 28 16.84 3.77 1.5 7.35 2 14.5 2 7.15 0 10.74-0.5 14.5-2 2.75-1.09 19.18-11.14 36.5-22.34 17.32-11.19 34.65-22.67 38.5-25.52 3.85-2.84 11.05-8.57 16-12.73 4.95-4.16 12.84-11.55 17.52-16.43 4.69-4.88 10.95-11.8 13.92-15.37 2.97-3.57 7.74-9.65 10.59-13.5 2.85-3.85 8.11-11.73 11.69-17.5 3.57-5.77 8.64-14.77 11.27-20 2.62-5.23 6.7-14.23 9.06-20 2.36-5.77 5.86-15.68 7.77-22 1.91-6.32 4.45-16 5.64-21.5 1.19-5.5 2.87-14.5 3.75-20 1.25-7.87 1.72-21.97 2.79-122.68l2.5-1.95c1.38-1.08 3.51-1.94 4.75-1.91 1.24 0.02 3.6 1.39 8.25 6.04v43.25c-0.01 30.72-0.45 48.03-1.53 59.75-0.83 9.07-1.98 19.43-2.55 23-0.56 3.57-2.1 11.45-3.41 17.5-1.31 6.05-4.02 16.4-6.02 23-2.01 6.6-5.67 16.95-8.15 23-2.47 6.05-7.5 16.85-11.17 23.99-3.67 7.15-10.57 18.85-15.33 26-4.77 7.16-11.74 16.83-15.5 21.5-3.76 4.67-11.57 13.39-17.34 19.38-5.77 5.99-14.55 14.28-19.5 18.44-4.95 4.15-12.37 10.04-16.5 13.08-4.12 3.04-21 14.26-37.5 24.93-16.5 10.67-32.48 20.64-35.5 22.16-3.02 1.52-8.09 3.5-11.25 4.39-3.16 0.9-9.35 1.63-13.75 1.63-4.4 0-10.59-0.73-13.75-1.63-3.16-0.89-8.22-2.87-11.25-4.39-3.02-1.52-19.22-11.65-36-22.52-16.77-10.87-33.65-22.09-37.5-24.93-3.85-2.84-11.05-8.57-16-12.72-4.95-4.16-13.72-12.45-19.5-18.44-5.77-5.99-13.58-14.71-17.34-19.38-3.76-4.67-10.89-14.56-15.83-21.99-4.95-7.43-12.76-21.15-17.35-30.5-4.59-9.35-9.92-21.27-11.84-26.5-1.92-5.23-4.87-14.23-6.54-20-1.67-5.77-3.96-15-5.09-20.5-1.13-5.5-2.48-12.7-3-16-0.52-3.3-1.64-13.2-2.48-22-1.24-12.96-1.5-30.25-1.36-91 0.15-60.14 0.45-76.09 1.57-80.5 0.76-3.03 2.58-7.07 4.05-9 1.46-1.92 3.57-4.27 4.68-5.22 1.12-0.94 3.61-2.51 5.53-3.48 2.88-1.46 7.06-1.87 23.5-2.31 17.88-0.47 20.48-0.75 24.5-2.7 2.48-1.2 6.21-3.9 8.3-5.99 2.09-2.09 4.75-5.82 5.91-8.3 1.5-3.21 2.29-7.52 2.77-15 0.41-6.51 1.27-11.64 2.26-13.5 0.87-1.65 3.09-4.42 4.92-6.16 1.84-1.74 4.91-4.07 6.84-5.18 3.45-1.99 5.05-2.02 119.5-2.11zm-0.25 44.99c72.28-0.03 84.23 0.17 87.25 1.46 3.09 1.33 4.21 2.98 9.64 14.25 5.56 11.54 6.91 13.51 14.27 20.75 4.47 4.4 10.59 9.46 13.61 11.24 3.01 1.79 8.18 4.36 11.48 5.71 3.3 1.35 10.5 3.22 16 4.14 5.5 0.93 11.13 2.46 12.5 3.4 1.38 0.95 3.08 3.02 3.79 4.61 1.03 2.31 1.22 17.56 0.95 74.4-0.33 69.64-0.4 71.83-2.65 84-1.27 6.87-3.79 17.9-5.61 24.5-1.82 6.6-5.22 16.95-7.57 23-2.35 6.05-6.92 16.18-10.17 22.5-3.24 6.32-8.71 15.77-12.15 21-3.43 5.23-9.86 14-14.27 19.5-4.42 5.5-13.61 15.42-20.43 22.04-6.81 6.62-16.66 15.2-21.89 19.08-5.23 3.87-18.95 13.16-30.5 20.65-11.55 7.49-23.7 14.88-27 16.42-5.38 2.52-7.08 2.81-16.5 2.81-9.18 0-11.19-0.32-16-2.57-3.02-1.41-16.22-9.51-29.32-18-13.1-8.49-27.95-18.7-33-22.71-5.05-4-14.06-12.1-20.03-18-5.96-5.89-13.76-14.32-17.32-18.72-3.57-4.4-9.8-12.95-13.84-19-4.05-6.05-10.01-16.18-13.25-22.5-3.24-6.32-7.8-16.45-10.15-22.5-2.35-6.05-5.75-16.4-7.57-23-1.82-6.6-4.32-17.63-5.57-24.5-2.04-11.25-2.32-16.56-2.75-53-0.49-40.37-0.48-40.51 1.66-42.75 1.34-1.41 3.35-2.26 5.39-2.28 2.06-0.02 3.98 0.75 5.25 2.1 1.91 2.04 2.03 3.96 2.61 42.28 0.47 31.11 0.99 42.29 2.29 49.65 0.93 5.23 2.77 13.77 4.1 19 1.32 5.23 4.04 14.23 6.04 20 2.01 5.77 5.99 15.45 8.85 21.5 2.86 6.05 7.65 15.05 10.64 20 2.98 4.95 8.76 13.5 12.83 19 4.07 5.5 13.77 16.3 21.54 24 7.78 7.7 17.86 16.7 22.41 20 4.54 3.3 18.26 12.48 30.48 20.4 12.21 7.91 24.01 15.01 26.21 15.77 2.2 0.75 6.25 1.34 9 1.31 2.75-0.04 6.58-0.62 8.5-1.31 1.93-0.68 14.52-8.42 28-17.2 13.48-8.77 28.77-19.4 34-23.6 5.23-4.2 14.02-12.3 19.54-18 5.53-5.71 13.34-14.64 17.36-19.87 4.02-5.23 9.82-13.55 12.88-18.5 3.06-4.95 8.17-14.4 11.34-21 3.17-6.6 7.79-18.07 10.26-25.5 2.47-7.43 5.62-18.9 6.99-25.5 1.37-6.6 2.97-16.39 3.56-21.75 0.64-5.87 1.07-34.75 1.09-135.25l-7.26-1.28c-3.99-0.71-10.41-2.4-14.26-3.76-3.85-1.36-10.34-4.39-14.42-6.72-4.09-2.33-11.22-7.84-15.87-12.24-4.64-4.4-10.38-10.92-12.76-14.5-2.37-3.57-5.69-9.54-10.45-20h-158l-3.07 6.75c-1.69 3.71-5.01 9.68-7.38 13.25-2.38 3.58-8.13 10.1-12.79 14.5-4.65 4.4-10.89 9.46-13.86 11.24-2.97 1.78-8.77 4.62-12.9 6.31-4.12 1.68-11.41 3.82-24.86 6.45l-0.32 13.84c-0.31 13.4-0.4 13.9-2.82 15.79-1.37 1.08-3.4 1.95-4.5 1.95-1.1-0.01-3.24-0.93-7.5-4.08v-16.5c0-11.95 0.38-17.26 1.37-19.25 0.75-1.51 2.44-3.49 3.75-4.39 1.31-0.9 5.76-2.12 9.88-2.72 4.13-0.59 9.98-1.81 13-2.7 3.03-0.9 8.43-3.16 12-5.03 3.57-1.87 9.09-5.43 12.25-7.91 3.16-2.47 8.08-7.31 10.93-10.75 3.03-3.66 7.38-10.9 10.5-17.5 3.91-8.27 6.05-11.64 8.07-12.71 2.35-1.25 15.05-1.47 86.5-1.5zm4.25 78.45c9.5 0.28 15.56 1.04 22.5 2.82 5.23 1.34 12.88 3.83 17 5.54 4.13 1.7 11.77 5.9 17 9.32 5.23 3.43 12.89 9.63 17.04 13.78 4.14 4.15 9.61 10.48 12.15 14.05 2.53 3.57 6.41 10.1 8.62 14.5 2.21 4.4 4.95 10.81 6.1 14.25 1.15 3.44 2.72 9.29 3.49 13 0.77 3.71 1.71 10.35 2.08 14.75 0.38 4.52 0.17 12.57-0.49 18.5-0.64 5.78-2.28 14.32-3.63 19-1.35 4.68-4.41 12.55-6.8 17.5-2.39 4.95-7.02 12.6-10.29 17-3.27 4.4-9.28 11.15-13.36 15-4.07 3.85-10.78 9.23-14.91 11.96-4.12 2.72-11.32 6.61-16 8.65-4.68 2.03-12.32 4.74-17 6.01-7.47 2.04-10.75 2.33-27 2.33-15.89 0-19.63-0.31-26.5-2.18-4.4-1.2-11.37-3.58-15.5-5.29-4.12-1.71-10.2-4.73-13.5-6.72-3.3-2-8.47-5.51-11.5-7.81-3.02-2.3-8.76-7.62-12.75-11.82-3.99-4.2-9.36-10.89-11.94-14.88-2.59-3.99-6.15-10.4-7.93-14.25-1.77-3.85-4.39-11.05-5.82-16-1.43-4.95-3.08-13.72-3.68-19.5-0.79-7.55-0.79-13.31-0.01-20.5 0.59-5.5 1.97-13.37 3.05-17.5 1.08-4.12 3.41-10.87 5.17-15 1.76-4.12 5.04-10.57 7.3-14.33 2.26-3.75 7.26-10.48 11.11-14.94 3.85-4.47 11.05-11.2 16-14.95 4.95-3.76 13.05-8.83 18-11.27 4.95-2.45 13.05-5.59 18-6.99 4.95-1.4 11.7-2.97 15-3.48 3.3-0.52 11.85-0.76 19-0.55zm-27 17.63c-4.4 1.09-12.5 4.18-18 6.86-5.68 2.77-13.45 7.66-18 11.33-4.4 3.55-10.47 9.53-13.5 13.29-3.02 3.76-7.42 10.22-9.77 14.37-2.36 4.14-5.58 11.58-7.16 16.53-1.59 4.95-3.42 13.5-4.07 19-0.64 5.5-0.88 13.15-0.51 17 0.36 3.85 1.55 10.82 2.63 15.5 1.09 4.68 3.89 12.55 6.23 17.5 2.34 4.95 5.62 11.02 7.3 13.5 1.68 2.48 5.71 7.38 8.95 10.89 3.25 3.52 8.38 8.31 11.4 10.64 3.03 2.34 8.88 6.08 13 8.32 4.13 2.24 10.65 5.16 14.5 6.49 3.85 1.32 10.38 2.97 14.5 3.65 4.7 0.78 12.35 1.06 20.5 0.74 10.01-0.4 15.01-1.11 21.75-3.12 4.81-1.44 11.56-4.02 15-5.74 3.44-1.72 8.72-4.76 11.73-6.75 3.01-1.99 8.35-6.32 11.86-9.62 3.51-3.3 8.55-8.93 11.2-12.5 2.65-3.57 6.85-10.77 9.34-16 2.49-5.23 5.41-13.32 6.5-18 1.08-4.68 2.27-11.65 2.63-15.5 0.37-3.85 0.14-11.5-0.5-17-0.64-5.5-2.49-14.05-4.11-19-1.61-4.95-4.84-12.39-7.17-16.53-2.33-4.15-6.71-10.61-9.73-14.37-3.02-3.76-9.1-9.74-13.5-13.29-4.54-3.66-12.33-8.57-18-11.33-5.5-2.69-13.6-5.84-18-7.01-5.51-1.46-11.89-2.22-20.5-2.46-6.87-0.19-13.85-0.13-15.5 0.14-1.65 0.27-6.6 1.38-11 2.47zm68.27 54.88c1.9 0 4.05 0.82 5.23 2 1.24 1.24 2 3.33 2 5.5 0 3.22-2.29 5.91-28.29 33.25-22.49 23.66-29.2 30.13-32.75 31.62-3.84 1.62-5.08 1.71-8.96 0.7-3.45-0.89-7.9-4.04-19-13.41-13.49-11.38-14.52-12.49-14.75-15.95-0.18-2.62 0.34-4.3 1.75-5.71 1.11-1.11 3.33-2 5-2 2.33 0 5.73 2.26 15.25 10.15 6.74 5.58 12.93 10.76 13.75 11.49 1.3 1.16 4.5-1.81 23.5-21.79 12.1-12.72 24.71-26 28.02-29.49 4.97-5.26 6.57-6.36 9.25-6.36z"/>
</svg>