<svg version="1.2" xmlns="http://www.w3.org/2000/svg" viewBox="0 0 512 512" width="512" height="512">
	<style>
		.s0 { fill: #000000 } 
	</style>
	<path id="Path 0" class="s0" d="m119 38.14c-5.78 1.04-14.78 3.22-20 4.84-5.22 1.61-13.78 5.02-19 7.58-5.22 2.55-13.55 7.4-18.5 10.78-4.95 3.37-13.5 10.65-19 16.17-5.5 5.51-12.91 14.29-16.46 19.51-3.55 5.21-8.36 13.3-10.68 17.98-2.32 4.67-5.81 13.22-7.74 19-1.94 5.78-4.49 15.9-5.68 22.5-1.82 10.15-2.07 14.47-1.64 28 0.28 8.8 1.18 18.93 2.01 22.5 1.13 4.93 2.24 7.17 4.59 9.25 1.7 1.51 4.56 3.03 6.35 3.38 2.19 0.42 4.55 0.01 7.25-1.25 2.55-1.2 4.73-3.23 6-5.59 1.89-3.51 1.93-4.31 0.75-14.5-0.68-5.94-1.24-14.39-1.24-18.79 0-4.4 0.65-12.28 1.43-17.5 0.79-5.22 2.64-13.32 4.1-18 1.47-4.68 4.68-12.55 7.14-17.5 2.45-4.95 6.56-11.93 9.13-15.5 2.57-3.58 7.6-9.59 11.18-13.37 3.58-3.78 9.89-9.41 14.01-12.52 4.13-3.1 11.33-7.61 16-10.03 4.67-2.42 11.65-5.46 15.5-6.76 3.85-1.3 10.83-3.1 15.5-4 4.97-0.96 13.49-1.64 20.5-1.64 7.01 0 15.53 0.68 20.5 1.64 4.68 0.9 11.65 2.7 15.5 4 3.85 1.3 11.05 4.46 16 7.02 4.95 2.56 11.53 6.57 14.63 8.91 3.09 2.34 13.78 12.01 23.75 21.5 12.04 11.46 19.21 17.56 21.37 18.17 1.98 0.56 4.72 0.56 7 0 2.92-0.72 8.02-4.96 23.03-19.17 10.6-10.04 22.41-20.33 26.25-22.88 3.83-2.55 9.9-6.1 13.47-7.9 3.57-1.79 9.65-4.33 13.5-5.63 3.85-1.31 10.82-3.11 15.5-4 4.9-0.94 13.58-1.63 20.5-1.63 6.92 0 15.6 0.69 20.5 1.63 4.68 0.89 11.65 2.69 15.5 4 3.85 1.31 10.6 4.19 15 6.4 4.4 2.21 11.6 6.71 16 9.99 4.4 3.29 10.74 8.85 14.08 12.37 3.34 3.52 8.22 9.32 10.83 12.9 2.62 3.57 6.49 9.65 8.61 13.5 2.12 3.85 5.44 11.72 7.37 17.5 1.94 5.77 4.22 14.77 5.06 20 0.85 5.22 1.54 13.89 1.55 19.25 0 5.36-0.48 13.24-1.07 17.5-0.58 4.26-2.14 12.02-3.45 17.25-1.31 5.22-3.49 12.43-4.83 16-1.35 3.57-3.06 7.75-3.8 9.28l-1.35 2.78-85-0.12c-5.22 3.53-9.5 8.57-12.87 13.47-3.37 4.9-6.58 8.9-7.13 8.88-0.55-0.01-7.19-11.9-14.77-26.41-7.57-14.51-14.88-27.39-16.25-28.63-1.36-1.24-4.17-2.52-6.23-2.84-2.06-0.33-4.88-0.11-6.25 0.48-1.38 0.59-3.5 2.1-4.72 3.34-1.22 1.25-10.53 20.04-20.69 41.77-10.17 21.73-18.84 39.62-19.29 39.76-0.44 0.14-6.59-26.18-13.67-58.5-7.09-32.32-13.72-60.67-14.75-63.01-1.17-2.64-3.02-4.82-4.88-5.75-1.65-0.83-4.69-1.5-6.75-1.5-2.06 0.01-5.1 0.82-6.75 1.82-2.54 1.54-6.36 9.02-25 48.92-12.1 25.91-22.32 46.8-22.72 46.43-0.4-0.37-6.47-11.65-13.5-25.06-7.38-14.09-13.84-25.19-15.28-26.29-1.38-1.05-4.3-2.15-6.5-2.45-3.14-0.43-4.75-0.04-7.5 1.81-2.06 1.39-8.04 8.84-14.5 18.09l-11 15.73c-85.22 0.01-87.13 0.09-90.25 2-1.79 1.1-3.93 3.57-4.75 5.5-0.83 1.92-1.5 4.62-1.5 6 0 1.37 1.95 6.21 4.34 10.75 2.38 4.54 6.5 11.62 9.15 15.75 2.64 4.12 8.46 12.45 12.91 18.5 4.46 6.05 12.58 16.4 18.05 23 5.47 6.6 17.62 19.82 27 29.39 9.38 9.56 23.01 22.72 30.3 29.25 7.29 6.52 19.89 17.15 28 23.63 8.11 6.47 20.15 15.64 26.75 20.37 6.6 4.73 19.2 13.34 28 19.12 8.8 5.79 23.54 14.84 32.75 20.13 9.78 5.61 17.89 9.62 19.5 9.64 1.51 0.02 6.57-2.06 11.25-4.61 4.68-2.55 13.45-7.6 19.5-11.21 6.05-3.62 18.43-11.52 27.5-17.57 9.07-6.05 21.68-14.82 28-19.49 6.32-4.67 16.68-12.64 23-17.7 6.32-5.06 17.12-14.14 24-20.17 6.87-6.04 19.01-17.46 26.96-25.38 7.95-7.92 19.56-20.25 25.79-27.4 6.23-7.15 12.55-14.76 14.04-16.91 1.93-2.79 2.69-5.1 2.63-8-0.04-2.25-0.94-5.39-2-6.97-1.06-1.59-3.16-3.5-4.67-4.25-1.51-0.75-4.32-1.37-6.25-1.37-1.93 0-4.4 0.45-5.5 1-1.1 0.55-5.93 5.61-10.74 11.25-4.81 5.64-13.47 15.39-19.25 21.68-5.78 6.29-16.81 17.27-24.51 24.4-7.7 7.13-19.63 17.67-26.5 23.42-6.88 5.75-19.25 15.5-27.5 21.66-8.25 6.17-19.27 14.15-24.5 17.74-5.23 3.6-14.45 9.68-20.5 13.52-6.05 3.84-15.39 9.53-20.75 12.65l-9.75 5.68c-17.44-10.24-28.13-16.82-35-21.21-6.88-4.4-19.21-12.79-27.41-18.64-8.2-5.86-21.02-15.55-28.5-21.53-7.47-5.99-18.77-15.43-25.09-20.99-6.32-5.56-18.25-16.87-26.51-25.12-8.25-8.26-19.8-20.64-25.66-27.51-5.86-6.88-13.08-15.65-16.04-19.5-2.96-3.85-7.94-10.6-11.05-15-3.12-4.4-5.68-8.34-5.7-8.75-0.02-0.41 15.49-0.75 34.46-0.75 28.44 0 35.11-0.26 38-1.5 2.61-1.12 5.34-4.16 10.75-11.98l7.25-10.49c20.56 39.11 27.34 51.82 28.33 53.47 0.98 1.65 3.56 3.84 5.73 4.86q3.94 1.86 7.19 1.25c1.79-0.34 4.49-1.66 6-2.95 1.9-1.62 8.61-14.88 21.75-42.99 10.45-22.36 19.22-40.65 19.5-40.65 0.28 0 6.3 26.66 13.39 59.24 7.09 32.58 13.72 61.15 14.75 63.49 1.16 2.65 2.99 4.82 4.86 5.75 1.65 0.82 4.57 1.5 6.5 1.5 1.93 0 4.89-0.79 6.6-1.75 2.46-1.39 4.47-4.61 9.8-15.75 3.68-7.7 13.65-28.93 22.15-47.17 8.5-18.25 15.79-32.88 16.2-32.5 0.41 0.37 6.48 11.64 13.5 25.05 8.44 16.13 13.7 25.1 15.57 26.5 1.87 1.4 4.3 2.12 7.18 2.12 2.84 0 5.34-0.72 7.18-2.08 1.55-1.15 7.77-9.14 13.82-17.76l11-15.68c81.41 0.02 85.85-0.15 89.17-1.73 2.02-0.96 4.26-2.65 4.98-3.75 0.72-1.1 3.6-7.4 6.41-14 2.8-6.6 6.43-16.73 8.05-22.5 1.62-5.78 3.84-15.9 4.92-22.5 1.26-7.65 1.97-16.8 1.97-25.25 0-10.11-0.59-16.16-2.47-25.5-1.35-6.74-3.84-16.3-5.53-21.25-1.68-4.95-4.98-12.83-7.31-17.5-2.34-4.68-6.49-11.84-9.22-15.92-2.73-4.08-8.16-11.05-12.05-15.5-3.9-4.44-9.52-10.15-12.5-12.67-2.98-2.52-8.12-6.58-11.42-9.01-3.3-2.43-10.5-6.75-16-9.59-5.5-2.84-14.73-6.75-20.5-8.68-5.77-1.94-16.01-4.44-22.75-5.57-6.74-1.13-16.07-2.06-20.75-2.06-4.68 0-13.79 0.91-20.25 2.03-6.46 1.12-16.02 3.34-21.25 4.93-5.23 1.6-14.45 5.37-20.5 8.38-6.05 3.01-14.71 8.21-19.25 11.56-4.54 3.36-13.88 11.5-20.75 18.1-6.88 6.6-12.95 12-13.5 12-0.55 0-6.51-5.29-13.25-11.76-6.74-6.47-14.95-13.85-18.25-16.39-3.3-2.54-9.38-6.61-13.5-9.05-4.13-2.44-11.32-6.06-16-8.03-4.68-1.98-11.65-4.55-15.5-5.72-3.85-1.16-12.29-3-18.75-4.08-6.79-1.14-15.86-1.92-21.5-1.85-5.36 0.07-14.47 0.97-20.25 2.02z"/>
</svg>