<svg version="1.2" xmlns="http://www.w3.org/2000/svg" viewBox="0 0 512 512" width="512" height="512">
	<style>
		.s0 { fill: #000000 } 
	</style>
	<path id="Path 0" fill-rule="evenodd" class="s0" d="m264 0.11c3.02-0.07 8.2 0.36 11.5 0.95 3.3 0.59 9.6 2.82 14 4.94 4.83 2.33 10.08 5.87 13.25 8.93 2.89 2.79 7.07 7.88 9.3 11.32 2.22 3.44 4.94 9.17 6.04 12.75 1.09 3.58 2.26 9.65 2.58 13.5 0.34 3.89 0.07 10.11-0.59 14-0.66 3.9-2.88 10.54-5.01 15-2.66 5.58-5.74 9.98-10.19 14.56-4.73 4.86-8.58 7.64-14.88 10.77-6.4 3.17-10.6 4.5-17 5.39-6.61 0.92-10.28 0.92-16.5-0.03-5.42-0.83-10.66-2.5-16.25-5.21-5.99-2.89-10.03-5.76-14.75-10.48-4.77-4.77-7.55-8.7-10.44-14.75-2.25-4.69-4.46-11.27-5.14-15.25-0.66-3.89-0.93-10.11-0.59-14 0.32-3.85 1.49-9.92 2.58-13.5 1.1-3.58 3.82-9.31 6.04-12.75 2.23-3.44 6.41-8.53 9.3-11.32 3.15-3.04 8.45-6.62 13.25-8.95 4.4-2.13 10.25-4.3 13-4.82 2.75-0.51 7.48-0.99 10.5-1.05zm-19.5 19.31c-2.2 1.27-6.2 4.51-8.88 7.2-2.69 2.68-6.18 7.47-7.75 10.63-1.58 3.16-3.41 8.79-4.07 12.5-0.93 5.22-0.94 8.34-0.03 13.75 0.65 3.85 2.42 9.47 3.93 12.5 1.51 3.03 5.01 7.76 7.77 10.53 2.77 2.76 7.5 6.26 10.53 7.77 3.03 1.51 8.65 3.28 12.5 3.93 5.41 0.91 8.53 0.9 13.75-0.03 3.71-0.66 9.45-2.55 12.75-4.2 3.3-1.65 8.28-5.36 11.07-8.25 2.79-2.89 6.18-7.5 7.53-10.25 1.34-2.75 2.98-7.92 3.63-11.5 0.86-4.73 0.89-8.27 0.13-13-0.57-3.58-2.24-9.09-3.7-12.25-1.46-3.16-4.85-8.11-7.53-11-2.69-2.89-7.52-6.66-10.75-8.39-3.24-1.73-8.24-3.64-11.13-4.25-2.89-0.61-7.39-1.08-10-1.04-2.61 0.03-7.23 0.73-10.25 1.54-3.03 0.82-7.3 2.53-9.5 3.81zm5.5 99.98c6.68 0.24 11.13 0.98 15 2.49 3.02 1.18 7.23 3.37 9.34 4.88 2.11 1.5 5.34 4.98 7.19 7.73 1.84 2.75 4.13 7.47 5.08 10.5 1.45 4.62 1.63 7.81 1.09 20-0.34 7.97-1.51 21.7-2.59 30.5-1.08 8.8-3.13 24.55-4.57 35-1.43 10.45-4.18 28.23-6.1 39.5-1.93 11.27-3.71 21.29-3.97 22.25-0.34 1.28 4.96 6.6 19.78 19.85 11.14 9.96 23.54 21.32 27.56 25.25 4.97 4.86 8.34 9.23 13.69 20.11v127.04l-6.5 13.5h115l2.5 2.5c1.38 1.37 2.5 3.4 2.5 4.5 0 1.1-1.1 3.12-4.91 7h-368.09l-2.5-2.5c-1.38-1.38-2.5-3.4-2.5-4.5 0-1.1 1.1-3.13 4.91-7h25.04c13.78 0 24.92-0.34 24.75-0.75-0.16-0.41-1.62-3.45-3.25-6.75-2.65-5.39-2.95-6.97-2.9-25l25.9-72.5c14.25-39.88 26.61-73.07 27.48-73.77 0.86-0.69 2.69-1.26 4.07-1.25 1.9 0.01 6.57 4.13 19.56 17.27 9.38 9.49 20.29 20.74 24.25 25 4.94 5.32 7.19 8.53 7.19 10.25 0 1.37-9.26 28.71-20.58 60.75-11.32 32.04-21.67 59.94-23 62-1.33 2.06-2.42 3.98-2.42 4.25 0 0.27 20.25 0.5 90 0.5l-1.9-3.25c-1.05-1.79-2.63-5.73-3.51-8.75-1.37-4.69-1.62-12.53-1.7-53-0.05-26.13-0.4-48.63-0.78-50-0.43-1.55-14.2-14.81-36.15-34.83-19.5-17.78-36.26-33.53-37.23-35-0.97-1.47-2.76-5.82-3.98-9.67-1.84-5.84-2.19-9.15-2.09-20 0.11-11.18 0.84-16.78 5.28-40 2.83-14.85 5.41-28.13 5.73-29.5 0.43-1.83 0.28-2.23-0.56-1.5-0.64 0.55-6.45 17.2-12.91 37-6.46 19.8-12.71 37.57-13.87 39.5-1.16 1.92-3.85 5.04-5.97 6.93-2.12 1.88-5.89 4.3-8.36 5.38-2.48 1.08-6.98 2.19-10 2.47-4.13 0.37-7.24-0.08-12.5-1.85-3.91-1.31-9.09-4.02-11.75-6.14-3.38-2.7-5.68-5.73-7.97-10.54-2.57-5.41-3.22-8.04-3.25-13.25-0.03-5.62 1.86-12.52 13.95-51 13.89-44.23 14-44.53 18.5-49.37 2.48-2.67 8.34-7.62 13.02-10.98 4.67-3.37 14.35-9.65 21.5-13.96 7.15-4.31 17.72-10.11 23.5-12.88 5.77-2.78 15.22-6.63 21-8.56 5.77-1.93 13.65-4.12 17.5-4.85 3.93-0.76 11.16-1.19 16.5-1zm-35 21.11c-5.23 2.06-13.33 5.67-18 8-4.68 2.34-12.78 6.81-18 9.95-5.23 3.13-12.88 8.13-17 11.11-4.13 2.98-9.38 7.11-11.68 9.17-4.12 3.72-4.34 4.26-18.23 46.26-7.74 23.37-14.07 43.96-14.08 45.75-0.01 1.79 0.69 4.94 1.54 7 0.86 2.06 2.77 5.02 4.25 6.58 1.49 1.56 4.27 3.48 6.2 4.28 1.92 0.79 4.96 1.43 6.75 1.41 1.79-0.01 4.94-0.73 7-1.6 2.06-0.87 5.21-3.12 7-5 2.8-2.95 4.84-8.33 14.85-39.17 9.9-30.53 12.17-36.52 15.5-41 2.14-2.89 6.71-7.56 10.15-10.38 3.44-2.82 7.15-5.56 8.25-6.1 1.1-0.53 3.01-0.7 4.25-0.37 1.24 0.33 2.89 1.84 3.67 3.35 1.08 2.11 1.22 4.27 0.57 9.25-0.47 3.57-1.98 13.02-3.35 21-1.37 7.97-4.06 22.82-5.98 33-1.93 10.17-3.79 22.32-4.16 27-0.36 4.67-0.23 11.2 0.29 14.5 0.53 3.3 1.8 7.76 2.83 9.91 1.04 2.14 2.55 4.14 3.38 4.44 0.82 0.3 16.57 14.34 35 31.21 18.42 16.86 34.28 31.51 35.23 32.55 0.96 1.04 2.28 4.81 2.93 8.39 0.83 4.51 1.16 20.77 1.07 53-0.12 42.42 0.03 46.85 1.64 50.5 0.97 2.2 3.42 5.69 5.44 7.75 2.04 2.07 5.37 4.2 7.44 4.74 2.06 0.55 5.21 1 7 1 1.79 0.01 4.94-0.69 7-1.54 2.06-0.85 5.27-2.99 7.12-4.75 1.86-1.76 4.21-5 5.23-7.2 1.74-3.75 1.86-7.63 1.86-63 0-54.74-0.13-59.29-1.81-63-0.99-2.2-3.35-5.76-5.23-7.92-1.88-2.15-14.78-14.19-28.67-26.75-13.89-12.55-25.81-23.98-26.5-25.39-1.04-2.11-0.96-3.44 0.46-7.75 0.94-2.85 2.82-11.27 4.19-18.69 1.36-7.43 3.6-21.15 4.99-30.5 1.38-9.35 3.65-27.13 5.04-39.5 1.38-12.38 3.03-28.58 3.66-36 1.13-13.29 1.11-13.58-1.22-18.49-1.3-2.74-3.83-6.45-5.62-8.25-1.98-1.99-5.3-3.85-8.5-4.77-2.89-0.83-8.18-1.47-11.75-1.42-3.58 0.06-10.1 0.9-14.5 1.89-4.4 0.98-12.28 3.48-17.5 5.55zm-86.01 334.74c-0.01 3.78 0.76 6.77 2.75 10.66 2.15 4.22 3.86 6.04 7.76 8.24 3.72 2.11 6.35 2.83 10.25 2.84 3.13 0.01 6.77-0.74 9-1.85 2.06-1.02 5.32-3.67 7.25-5.88 2.95-3.38 5.61-10.06 16.89-42.39 7.37-21.1 16.25-46.58 19.75-56.62l6.36-18.25c-25.19-25.63-32.73-33.05-33.01-33.03-0.29 0.01-10.97 29.5-23.75 65.53-18.97 53.47-23.24 66.46-23.25 70.75zm176.76-293.19c0.14-0.03 1.26 0.46 2.5 1.1 1.24 0.64 22.5 16.59 47.25 35.45 33.89 25.82 45.68 35.35 47.75 38.59 1.52 2.36 3.23 6.55 3.81 9.3 0.74 3.51 0.74 6.71 0 10.75-0.58 3.16-2.01 7.66-3.16 10-1.16 2.34-4.2 6.4-6.75 9.03-2.96 3.04-6.56 5.49-9.9 6.75-2.89 1.08-6.94 1.97-9 1.97-2.06 0-5.33-0.47-7.25-1.05-1.93-0.57-20.73-13.51-41.8-28.75-22.67-16.4-38.52-28.52-38.84-29.7-0.29-1.1 1.58-14.83 4.16-30.5 2.59-15.68 5.14-29.11 5.68-29.86 0.53-0.75 1.94-1.73 3.13-2.19 1.2-0.45 2.28-0.85 2.42-0.89zm1.76 38.94c-2.75 14.62-3.22 18.75-2.24 19.68 0.68 0.65 16.53 12.24 35.23 25.76 26.27 19 34.68 24.59 37 24.6 1.65 0.01 4.55-1.01 6.45-2.26 1.9-1.25 4.51-3.86 5.8-5.78 1.29-1.93 2.77-5.19 3.3-7.25 0.52-2.06 0.69-5.21 0.38-7-0.31-1.79-1.1-3.95-1.75-4.8-0.65-0.85-13.56-10.95-28.68-22.44-15.13-11.48-32.96-25.1-39.62-30.26-6.67-5.16-12.19-9.24-12.26-9.07-0.07 0.18-1.69 8.64-3.61 18.82z"/>
</svg>