<svg version="1.2" xmlns="http://www.w3.org/2000/svg" viewBox="0 0 512 512" width="512" height="512">
	<style>
		.s0 { fill: #000000 } 
	</style>
	<path id="Path 0" fill-rule="evenodd" class="s0" d="m254.5 0.13c15.61-0.11 23.07 0.31 34 1.92 7.7 1.14 18.95 3.16 25 4.5 6.05 1.35 15.27 3.84 20.5 5.54 5.23 1.7 14.45 5.11 20.5 7.57 6.05 2.47 15.5 6.88 21 9.82 5.5 2.94 14.73 8.45 20.5 12.25 5.77 3.8 15 10.54 20.5 14.97 5.5 4.44 14.67 12.73 20.37 18.43 5.7 5.7 13.98 14.87 18.41 20.37 4.42 5.5 10.6 13.83 13.74 18.5 3.14 4.67 8.22 13 11.29 18.5 3.07 5.5 7.81 15.18 10.52 21.5 2.71 6.32 6.74 17.12 8.94 24 2.2 6.87 4.93 16.78 6.06 22 1.13 5.22 2.98 15.91 4.11 23.75 1.45 10 2.06 19.39 2.06 31.5 0.01 11.93-0.63 21.88-2.06 32.25-1.13 8.25-3.35 20.4-4.92 27-1.57 6.6-4.54 16.95-6.59 23-2.05 6.05-5.93 15.95-8.61 22-2.68 6.05-7.41 15.5-10.51 21-3.11 5.5-7.29 12.48-9.3 15.5-2.02 3.02-5.43 6.62-7.59 8-3.16 2.02-5.19 2.5-10.49 2.5-5.37 0-7.3-0.47-10.5-2.56-2.16-1.41-5.05-4.34-6.43-6.5-2.01-3.17-2.5-5.22-2.49-10.44 0-6.19 0.28-6.95 5.91-16 3.25-5.23 8.75-15.35 12.23-22.5 3.47-7.15 8.09-18.4 10.26-25 2.18-6.6 5.08-17.4 6.44-24 1.37-6.6 2.98-16.95 3.58-23 0.59-6.05 1.08-15.27 1.08-20.5 0-5.22-0.46-14.22-1.03-20-0.57-5.78-1.97-15.45-3.12-21.5-1.15-6.05-4.23-17.53-6.83-25.5-2.61-7.97-6.98-19.22-9.71-25-2.73-5.78-7.62-14.78-10.86-20-3.24-5.22-9.28-13.99-13.43-19.49-4.14-5.49-12.03-14.51-17.53-20.05-5.5-5.53-13.38-12.79-17.5-16.12-4.12-3.33-12.45-9.32-18.5-13.31-6.05-3.99-16.4-9.89-23-13.11-6.6-3.22-18.75-8.07-27-10.78-8.25-2.7-19.95-5.86-26-7.02-6.05-1.15-15.73-2.56-21.5-3.12-5.77-0.56-14.77-1.01-20-1.01-5.22 0-14.22 0.46-20 1.03-5.78 0.57-15.45 1.97-21.5 3.12-6.05 1.15-17.53 4.22-25.5 6.83-7.97 2.6-20.13 7.45-27 10.77-6.87 3.32-17.45 9.3-23.5 13.29-6.05 3.99-14.37 10.01-18.48 13.36-4.11 3.36-10.36 8.81-13.89 12.11-3.53 3.3-10.01 10.28-14.4 15.5-4.4 5.22-11.58 14.9-15.98 21.5-4.39 6.6-10.62 17.4-13.83 24-3.22 6.6-8.07 18.75-10.78 27-2.7 8.25-5.86 19.95-7.02 26-1.15 6.05-2.56 15.72-3.12 21.5-0.56 5.78-1.01 14.78-1.01 20 0 5.23 0.45 14.23 1.01 20 0.56 5.77 1.97 15.45 3.12 21.5 1.16 6.05 4.32 17.75 7.02 26 2.71 8.25 7.56 20.4 10.78 27 3.22 6.6 9.12 16.95 13.11 23 3.99 6.05 9.98 14.37 13.31 18.5 3.33 4.12 10.59 12 16.12 17.5 5.54 5.5 14.56 13.39 20.05 17.53 5.5 4.15 14.27 10.19 19.49 13.44 5.22 3.25 14.68 8.3 21 11.23 6.32 2.93 17.13 7.17 24 9.41 6.88 2.25 17.68 5.13 24 6.41 6.32 1.27 16.45 2.81 22.5 3.4 6.05 0.6 15.72 1.09 21.5 1.08 5.77 0 16.24-0.67 23.25-1.5 7.01-0.82 16.01-2.22 20-3.1 3.99-0.87 11.3-2.74 16.25-4.14 4.95-1.4 13.95-4.53 20-6.96 6.05-2.43 15.27-6.7 20.5-9.49 5.23-2.79 10.85-5.8 12.5-6.69 1.84-0.99 5.38-1.62 9.16-1.62 5.24 0 6.81 0.45 10.43 3 2.37 1.67 5.3 4.99 6.6 7.5 1.48 2.84 2.34 6.16 2.32 9-0.02 2.61-0.98 6.37-2.27 8.93-1.23 2.44-3.59 5.44-5.24 6.66-1.65 1.23-7.27 4.55-12.5 7.39-5.23 2.84-14.45 7.32-20.5 9.96-6.05 2.64-16.18 6.47-22.5 8.52-6.32 2.04-16.23 4.77-22 6.06-5.77 1.29-16.8 3.28-24.5 4.42-10.26 1.52-18.95 2.08-32.5 2.08-13.57 0-22.23-0.56-32.5-2.08-7.7-1.14-18.28-3-23.5-4.12-5.22-1.13-15.12-3.85-22-6.05-6.87-2.2-17.45-6.13-23.5-8.72-6.05-2.59-15.72-7.32-21.5-10.52-5.78-3.19-14.32-8.37-19-11.51-4.67-3.14-13-9.32-18.5-13.74-5.5-4.43-14.67-12.71-20.37-18.41-5.7-5.7-13.98-14.87-18.41-20.37-4.42-5.5-10.6-13.82-13.73-18.5-3.13-4.68-7.98-12.55-10.78-17.5-2.79-4.95-7.18-13.73-9.74-19.5-2.56-5.77-6.59-16.13-8.95-23-2.36-6.88-5.44-17.68-6.86-24-1.41-6.32-3.49-17.91-4.61-25.75-1.43-9.93-2.05-19.48-2.06-31.5-0.01-11.39 0.65-22.17 1.92-31.75 1.06-7.97 3.14-19.9 4.62-26.5 1.49-6.6 4.63-17.63 6.99-24.5 2.36-6.88 6.39-17.22 8.95-23 2.56-5.78 6.95-14.55 9.74-19.5 2.8-4.95 7.65-12.83 10.78-17.5 3.13-4.67 9.31-13 13.73-18.5 4.42-5.5 13.15-15.05 19.41-21.23 6.25-6.18 15.42-14.46 20.37-18.4 4.95-3.95 12.83-9.75 17.5-12.89 4.68-3.14 13-8.22 18.5-11.29 5.5-3.07 15.18-7.8 21.5-10.51 6.32-2.71 17.13-6.75 24-8.97 6.88-2.22 17.22-5.04 23-6.27 5.78-1.22 15.68-3 22-3.95 7.54-1.13 18.39-1.77 31.5-1.86zm-87.25 149.96c3.16-0.05 8.11 0.41 11 1.02 2.89 0.6 8.18 2.48 11.75 4.16q6.5 3.06 13.09 9.64c4.35 4.36 7.63 8.79 9.66 13.09 1.7 3.57 3.63 9.43 4.31 13 0.68 3.61 0.94 8.72 0.58 11.5-0.36 2.75-1.69 6.57-2.96 8.5-1.27 1.93-4.08 4.62-6.24 6-3.16 2.01-5.22 2.5-10.44 2.5-5.22 0-7.28-0.49-10.44-2.5-2.16-1.38-4.95-4.07-6.2-6-1.25-1.93-2.55-5.53-2.9-8-0.34-2.48-1.15-5.8-1.79-7.39-0.64-1.58-2.41-3.5-3.92-4.25-1.51-0.75-3.65-1.36-4.75-1.36-1.1 0-3.24 0.61-4.75 1.36-1.51 0.75-3.28 2.67-3.92 4.25-0.64 1.59-1.45 4.91-1.79 7.39-0.35 2.47-1.65 6.07-2.9 8-1.25 1.93-4.04 4.62-6.2 6-3.16 2.01-5.22 2.5-10.44 2.5-5.22 0-7.28-0.49-10.44-2.5-2.16-1.38-4.97-4.07-6.24-6-1.27-1.93-2.6-5.75-2.96-8.5-0.36-2.78-0.1-7.89 0.58-11.5 0.68-3.57 2.61-9.43 4.31-13 2.04-4.31 5.29-8.72 9.66-13.07 4.03-4.02 8.92-7.7 12.59-9.47 3.3-1.59 8.25-3.43 11-4.09 2.75-0.66 7.59-1.24 10.75-1.28zm177 0c3.16-0.05 8.11 0.41 11 1.02 2.89 0.6 8.18 2.48 11.75 4.16q6.5 3.06 13.09 9.64c4.35 4.36 7.63 8.79 9.66 13.09 1.7 3.57 3.63 9.43 4.31 13 0.68 3.61 0.94 8.72 0.58 11.5-0.36 2.75-1.69 6.57-2.96 8.5-1.27 1.93-4.08 4.62-6.24 6-3.16 2.01-5.22 2.5-10.44 2.5-5.22 0-7.28-0.49-10.44-2.5-2.16-1.38-4.95-4.07-6.2-6-1.25-1.93-2.55-5.53-2.9-8-0.34-2.48-1.15-5.8-1.79-7.39-0.64-1.58-2.41-3.5-3.92-4.25-1.51-0.75-3.65-1.36-4.75-1.36-1.1 0-3.24 0.61-4.75 1.36-1.51 0.75-3.28 2.67-3.92 4.25-0.64 1.59-1.45 4.91-1.79 7.39-0.35 2.47-1.65 6.07-2.9 8-1.25 1.93-4.04 4.62-6.2 6-3.16 2.01-5.22 2.5-10.44 2.5-5.22 0-7.28-0.49-10.44-2.5-2.16-1.38-4.97-4.07-6.24-6-1.27-1.93-2.6-5.75-2.96-8.5-0.36-2.78-0.1-7.89 0.58-11.5 0.68-3.57 2.61-9.43 4.31-13 2.04-4.31 5.29-8.72 9.66-13.07 4.03-4.02 8.92-7.7 12.59-9.47 3.3-1.59 8.25-3.43 11-4.09 2.75-0.66 7.59-1.24 10.75-1.28zm-174.75 141.01c1.65-0.05 4.69 0.36 6.75 0.91 2.4 0.63 5.99 3.15 10 7.02 3.44 3.31 9.18 8.01 12.75 10.43 3.57 2.42 10.1 6.07 14.5 8.1 4.4 2.04 12.28 4.85 17.5 6.24 8.23 2.2 11.57 2.54 25 2.54 13.41 0 16.78-0.34 25-2.53 5.23-1.39 13.32-4.33 18-6.53 4.68-2.21 11.04-5.76 14.15-7.9 3.1-2.13 8.61-6.69 12.25-10.13 4.64-4.4 7.86-6.58 10.85-7.35 2.34-0.61 6.27-0.82 8.75-0.46 2.48 0.35 6.05 1.63 7.94 2.85 1.89 1.22 4.46 3.78 5.72 5.71 1.26 1.93 2.58 5.52 2.92 8 0.35 2.48 0.16 6.3-0.41 8.5-0.61 2.36-3.02 6.22-5.85 9.39-2.65 2.97-9.32 8.77-14.82 12.89-5.98 4.47-14.82 9.81-22 13.27-6.6 3.18-14.93 6.76-18.5 7.95-3.57 1.19-10.77 3.11-16 4.27-7.62 1.68-13.07 2.11-27.5 2.15-13.61 0.05-20.07-0.38-26.5-1.72-4.68-0.99-12.1-2.93-16.5-4.32-4.4-1.38-12.72-4.77-18.5-7.52-5.78-2.75-13.43-6.96-17-9.35-3.57-2.38-9.99-7.3-14.25-10.92-4.26-3.63-8.86-8.28-10.23-10.34-1.36-2.06-2.76-5.77-3.1-8.25-0.35-2.48-0.13-6.41 0.48-8.75 0.69-2.66 2.6-5.75 5.1-8.25 2.2-2.2 5.46-4.41 7.25-4.91 1.79-0.5 4.6-0.95 6.25-0.99z"/>
</svg>